<mxfile host="app.diagrams.net" agent="Mozilla/5.0 (Windows NT 10.0; Win64; x64) AppleWebKit/537.36 (KHTML, like Gecko) Chrome/136.0.0.0 Safari/537.36" version="26.2.14">
  <diagram name="Page-1" id="1iTTIdzumYnYu7tgW8pY">
    <mxGraphModel dx="2276" dy="897" grid="1" gridSize="10" guides="1" tooltips="1" connect="1" arrows="1" fold="1" page="1" pageScale="1" pageWidth="850" pageHeight="1100" math="0" shadow="0">
      <root>
        <mxCell id="0" />
        <mxCell id="1" parent="0" />
        <mxCell id="l7MT872VKooE7eArClU3-1" value="&lt;font style=&quot;font-size: 14px;&quot;&gt;Απλός Αναγνώστης&lt;/font&gt;" style="shape=umlActor;verticalLabelPosition=bottom;verticalAlign=top;html=1;outlineConnect=0;" parent="1" vertex="1">
          <mxGeometry x="-57.5" y="320" width="40" height="70" as="geometry" />
        </mxCell>
        <mxCell id="l7MT872VKooE7eArClU3-2" value="" style="shape=umlBoundary;whiteSpace=wrap;html=1;" parent="1" vertex="1">
          <mxGeometry x="100" y="115" width="100" height="80" as="geometry" />
        </mxCell>
        <mxCell id="l7MT872VKooE7eArClU3-3" value="&lt;font style=&quot;font-size: 14px;&quot;&gt;Homepage&lt;/font&gt;" style="text;html=1;align=center;verticalAlign=middle;resizable=0;points=[];autosize=1;strokeColor=none;fillColor=none;" parent="1" vertex="1">
          <mxGeometry x="110" y="90" width="90" height="30" as="geometry" />
        </mxCell>
        <mxCell id="l7MT872VKooE7eArClU3-4" value="" style="endArrow=none;html=1;rounded=0;" parent="1" source="l7MT872VKooE7eArClU3-1" target="l7MT872VKooE7eArClU3-2" edge="1">
          <mxGeometry width="50" height="50" relative="1" as="geometry">
            <mxPoint y="350" as="sourcePoint" />
            <mxPoint x="187" y="240" as="targetPoint" />
          </mxGeometry>
        </mxCell>
        <mxCell id="l7MT872VKooE7eArClU3-5" value="&lt;font&gt;Επιλογή αναζήτησης&amp;nbsp;&lt;/font&gt;&lt;div&gt;&lt;font&gt;βιβλίων&lt;/font&gt;&lt;/div&gt;" style="text;html=1;align=center;verticalAlign=middle;resizable=0;points=[];autosize=1;strokeColor=none;fillColor=none;rotation=-50;" parent="1" vertex="1">
          <mxGeometry x="-30" y="220" width="140" height="40" as="geometry" />
        </mxCell>
        <mxCell id="Xi3O6kmKzdh9R9sVhrsC-1" value="" style="shape=umlBoundary;whiteSpace=wrap;html=1;" parent="1" vertex="1">
          <mxGeometry x="190" y="260" width="100" height="80" as="geometry" />
        </mxCell>
        <mxCell id="Xi3O6kmKzdh9R9sVhrsC-2" value="&lt;span style=&quot;font-size: 14px;&quot;&gt;Εμφάνιση φόρμας αναζήτησης καινούργιου βιβλίου&lt;/span&gt;" style="ellipse;shape=umlControl;whiteSpace=wrap;html=1;" parent="1" vertex="1">
          <mxGeometry x="297.5" y="100" width="145" height="110" as="geometry" />
        </mxCell>
        <mxCell id="Xi3O6kmKzdh9R9sVhrsC-3" value="" style="endArrow=none;html=1;rounded=0;entryX=0.535;entryY=1.012;entryDx=0;entryDy=0;entryPerimeter=0;exitX=1.03;exitY=0.438;exitDx=0;exitDy=0;exitPerimeter=0;" parent="1" source="Xi3O6kmKzdh9R9sVhrsC-1" target="Xi3O6kmKzdh9R9sVhrsC-2" edge="1">
          <mxGeometry width="50" height="50" relative="1" as="geometry">
            <mxPoint x="233" y="200" as="sourcePoint" />
            <mxPoint x="290" y="215" as="targetPoint" />
          </mxGeometry>
        </mxCell>
        <mxCell id="Xi3O6kmKzdh9R9sVhrsC-4" value="" style="endArrow=none;html=1;rounded=0;exitX=1.017;exitY=0.488;exitDx=0;exitDy=0;exitPerimeter=0;" parent="1" source="l7MT872VKooE7eArClU3-2" target="Xi3O6kmKzdh9R9sVhrsC-2" edge="1">
          <mxGeometry width="50" height="50" relative="1" as="geometry">
            <mxPoint x="225" y="150" as="sourcePoint" />
            <mxPoint x="275" y="100" as="targetPoint" />
          </mxGeometry>
        </mxCell>
        <mxCell id="Xi3O6kmKzdh9R9sVhrsC-6" value="&lt;font style=&quot;font-size: 14px;&quot;&gt;Search Book Offers&lt;/font&gt;" style="text;html=1;align=center;verticalAlign=middle;resizable=0;points=[];autosize=1;strokeColor=none;fillColor=none;" parent="1" vertex="1">
          <mxGeometry x="172.5" y="230" width="150" height="30" as="geometry" />
        </mxCell>
        <mxCell id="Xi3O6kmKzdh9R9sVhrsC-7" value="" style="ellipse;shape=umlEntity;whiteSpace=wrap;html=1;" parent="1" vertex="1">
          <mxGeometry x="700" y="290" width="80" height="80" as="geometry" />
        </mxCell>
        <mxCell id="Xi3O6kmKzdh9R9sVhrsC-8" value="&lt;font style=&quot;font-size: 14px;&quot;&gt;Βάση Δεδομένων&lt;/font&gt;" style="text;html=1;align=center;verticalAlign=middle;resizable=0;points=[];autosize=1;strokeColor=none;fillColor=none;" parent="1" vertex="1">
          <mxGeometry x="675" y="260" width="130" height="30" as="geometry" />
        </mxCell>
        <mxCell id="Xi3O6kmKzdh9R9sVhrsC-9" value="" style="endArrow=none;html=1;rounded=0;" parent="1" source="l7MT872VKooE7eArClU3-1" target="Xi3O6kmKzdh9R9sVhrsC-1" edge="1">
          <mxGeometry width="50" height="50" relative="1" as="geometry">
            <mxPoint x="60" y="370" as="sourcePoint" />
            <mxPoint x="110" y="320" as="targetPoint" />
          </mxGeometry>
        </mxCell>
        <mxCell id="Xi3O6kmKzdh9R9sVhrsC-10" value="&lt;font style=&quot;font-size: 11px;&quot;&gt;Συμπλήρωση στοιχείων και&amp;nbsp;&lt;/font&gt;&lt;div&gt;&lt;font style=&quot;font-size: 11px;&quot;&gt;επιλογή στρατηγικής&amp;nbsp;&amp;nbsp;&lt;/font&gt;&lt;div&gt;&lt;font style=&quot;font-size: 11px;&quot;&gt;για αναζήτηση βιβλίου&lt;/font&gt;&lt;/div&gt;&lt;/div&gt;" style="text;html=1;align=center;verticalAlign=middle;resizable=0;points=[];autosize=1;strokeColor=none;fillColor=none;rotation=-30;" parent="1" vertex="1">
          <mxGeometry x="25" y="245" width="160" height="60" as="geometry" />
        </mxCell>
        <mxCell id="Xi3O6kmKzdh9R9sVhrsC-11" value="&lt;font style=&quot;font-size: 14px;&quot;&gt;Αναζητά&lt;/font&gt;" style="ellipse;shape=umlControl;whiteSpace=wrap;html=1;" parent="1" vertex="1">
          <mxGeometry x="505" y="295" width="80" height="90" as="geometry" />
        </mxCell>
        <mxCell id="Xi3O6kmKzdh9R9sVhrsC-12" value="" style="endArrow=none;html=1;rounded=0;entryX=0;entryY=0.5;entryDx=0;entryDy=0;" parent="1" source="Xi3O6kmKzdh9R9sVhrsC-11" target="Xi3O6kmKzdh9R9sVhrsC-7" edge="1">
          <mxGeometry width="50" height="50" relative="1" as="geometry">
            <mxPoint x="222" y="179" as="sourcePoint" />
            <mxPoint x="285" y="177" as="targetPoint" />
          </mxGeometry>
        </mxCell>
        <mxCell id="Xi3O6kmKzdh9R9sVhrsC-13" value="" style="endArrow=none;html=1;rounded=0;entryX=-0.035;entryY=0.613;entryDx=0;entryDy=0;entryPerimeter=0;" parent="1" source="Xi3O6kmKzdh9R9sVhrsC-1" target="Gr1uQoJRg3DF9CmiDk03-1" edge="1">
          <mxGeometry width="50" height="50" relative="1" as="geometry">
            <mxPoint x="222" y="179" as="sourcePoint" />
            <mxPoint x="285" y="177" as="targetPoint" />
          </mxGeometry>
        </mxCell>
        <mxCell id="Xi3O6kmKzdh9R9sVhrsC-14" value="&lt;font style=&quot;font-size: 14px;&quot;&gt;Εμφάνιση αποτελεσμάτων&lt;/font&gt;" style="ellipse;shape=umlControl;whiteSpace=wrap;html=1;" parent="1" vertex="1">
          <mxGeometry x="315" y="435" width="110" height="110" as="geometry" />
        </mxCell>
        <mxCell id="Xi3O6kmKzdh9R9sVhrsC-15" value="" style="endArrow=none;html=1;rounded=0;" parent="1" source="Xi3O6kmKzdh9R9sVhrsC-14" target="Xi3O6kmKzdh9R9sVhrsC-11" edge="1">
          <mxGeometry width="50" height="50" relative="1" as="geometry">
            <mxPoint x="283" y="345" as="sourcePoint" />
            <mxPoint x="331" y="230" as="targetPoint" />
          </mxGeometry>
        </mxCell>
        <mxCell id="Xi3O6kmKzdh9R9sVhrsC-17" value="" style="shape=umlBoundary;whiteSpace=wrap;html=1;" parent="1" vertex="1">
          <mxGeometry x="130" y="470" width="100" height="80" as="geometry" />
        </mxCell>
        <mxCell id="Xi3O6kmKzdh9R9sVhrsC-18" value="&lt;font style=&quot;font-size: 14px;&quot;&gt;Search Results&lt;/font&gt;" style="text;html=1;align=center;verticalAlign=middle;resizable=0;points=[];autosize=1;strokeColor=none;fillColor=none;" parent="1" vertex="1">
          <mxGeometry x="130" y="440" width="120" height="30" as="geometry" />
        </mxCell>
        <mxCell id="Xi3O6kmKzdh9R9sVhrsC-19" value="" style="endArrow=none;html=1;rounded=0;entryX=0.015;entryY=0.5;entryDx=0;entryDy=0;entryPerimeter=0;" parent="1" source="Xi3O6kmKzdh9R9sVhrsC-17" target="Xi3O6kmKzdh9R9sVhrsC-14" edge="1">
          <mxGeometry width="50" height="50" relative="1" as="geometry">
            <mxPoint x="250" y="489.5" as="sourcePoint" />
            <mxPoint x="330" y="489.5" as="targetPoint" />
          </mxGeometry>
        </mxCell>
        <mxCell id="Xi3O6kmKzdh9R9sVhrsC-21" value="" style="endArrow=none;html=1;rounded=0;" parent="1" source="Xi3O6kmKzdh9R9sVhrsC-17" target="l7MT872VKooE7eArClU3-1" edge="1">
          <mxGeometry width="50" height="50" relative="1" as="geometry">
            <mxPoint x="283" y="345" as="sourcePoint" />
            <mxPoint x="331" y="230" as="targetPoint" />
          </mxGeometry>
        </mxCell>
        <mxCell id="Xi3O6kmKzdh9R9sVhrsC-22" value="&lt;font style=&quot;font-size: 14px;&quot;&gt;Επιλέγει βιβλίο&lt;/font&gt;" style="text;html=1;align=center;verticalAlign=middle;resizable=0;points=[];autosize=1;strokeColor=none;fillColor=none;rotation=30;" parent="1" vertex="1">
          <mxGeometry x="20" y="400" width="120" height="30" as="geometry" />
        </mxCell>
        <mxCell id="Xi3O6kmKzdh9R9sVhrsC-23" value="&lt;font style=&quot;font-size: 14px;&quot;&gt;Ελέγχει διαθεσιμότητα&lt;/font&gt;" style="ellipse;shape=umlControl;whiteSpace=wrap;html=1;" parent="1" vertex="1">
          <mxGeometry x="297.5" y="570" width="100" height="100" as="geometry" />
        </mxCell>
        <mxCell id="Xi3O6kmKzdh9R9sVhrsC-24" value="" style="endArrow=none;html=1;rounded=0;" parent="1" source="Xi3O6kmKzdh9R9sVhrsC-17" target="Xi3O6kmKzdh9R9sVhrsC-23" edge="1">
          <mxGeometry width="50" height="50" relative="1" as="geometry">
            <mxPoint x="260" y="500" as="sourcePoint" />
            <mxPoint x="347" y="500" as="targetPoint" />
          </mxGeometry>
        </mxCell>
        <mxCell id="Xi3O6kmKzdh9R9sVhrsC-25" value="&lt;font style=&quot;font-size: 14px;&quot;&gt;Δημιουργία Αιτήματος βιβλίου&lt;/font&gt;" style="ellipse;shape=umlControl;whiteSpace=wrap;html=1;" parent="1" vertex="1">
          <mxGeometry x="550" y="590" width="110" height="110" as="geometry" />
        </mxCell>
        <mxCell id="Xi3O6kmKzdh9R9sVhrsC-26" value="" style="ellipse;shape=umlEntity;whiteSpace=wrap;html=1;" parent="1" vertex="1">
          <mxGeometry x="660" y="450" width="80" height="80" as="geometry" />
        </mxCell>
        <mxCell id="Xi3O6kmKzdh9R9sVhrsC-27" value="&lt;font style=&quot;font-size: 14px;&quot;&gt;Αίτημα Βιβλίου&lt;/font&gt;" style="text;html=1;align=center;verticalAlign=middle;resizable=0;points=[];autosize=1;strokeColor=none;fillColor=none;" parent="1" vertex="1">
          <mxGeometry x="630" y="415" width="120" height="30" as="geometry" />
        </mxCell>
        <mxCell id="Xi3O6kmKzdh9R9sVhrsC-28" value="" style="endArrow=none;html=1;rounded=0;" parent="1" source="Xi3O6kmKzdh9R9sVhrsC-25" target="Xi3O6kmKzdh9R9sVhrsC-26" edge="1">
          <mxGeometry width="50" height="50" relative="1" as="geometry">
            <mxPoint x="253" y="540" as="sourcePoint" />
            <mxPoint x="313" y="596" as="targetPoint" />
          </mxGeometry>
        </mxCell>
        <mxCell id="Xi3O6kmKzdh9R9sVhrsC-29" value="" style="endArrow=none;html=1;rounded=0;" parent="1" source="Xi3O6kmKzdh9R9sVhrsC-23" target="Xi3O6kmKzdh9R9sVhrsC-25" edge="1">
          <mxGeometry width="50" height="50" relative="1" as="geometry">
            <mxPoint x="263" y="550" as="sourcePoint" />
            <mxPoint x="323" y="606" as="targetPoint" />
          </mxGeometry>
        </mxCell>
        <mxCell id="Xi3O6kmKzdh9R9sVhrsC-30" value="" style="shape=umlBoundary;whiteSpace=wrap;html=1;" parent="1" vertex="1">
          <mxGeometry x="7.5" y="660" width="100" height="80" as="geometry" />
        </mxCell>
        <mxCell id="Xi3O6kmKzdh9R9sVhrsC-31" value="&lt;font style=&quot;font-size: 14px;&quot;&gt;Request Complete&lt;/font&gt;" style="text;html=1;align=center;verticalAlign=middle;resizable=0;points=[];autosize=1;strokeColor=none;fillColor=none;" parent="1" vertex="1">
          <mxGeometry x="5" y="630" width="140" height="30" as="geometry" />
        </mxCell>
        <mxCell id="Xi3O6kmKzdh9R9sVhrsC-34" value="" style="endArrow=none;html=1;rounded=0;" parent="1" source="Xi3O6kmKzdh9R9sVhrsC-23" target="Xi3O6kmKzdh9R9sVhrsC-7" edge="1">
          <mxGeometry width="50" height="50" relative="1" as="geometry">
            <mxPoint x="576" y="588" as="sourcePoint" />
            <mxPoint x="620" y="600" as="targetPoint" />
          </mxGeometry>
        </mxCell>
        <mxCell id="Xi3O6kmKzdh9R9sVhrsC-35" value="&lt;font&gt;Υπάρχει διαθεσιμότητα&lt;/font&gt;" style="text;html=1;align=center;verticalAlign=middle;resizable=0;points=[];autosize=1;strokeColor=none;fillColor=none;rotation=5;" parent="1" vertex="1">
          <mxGeometry x="400" y="600" width="150" height="30" as="geometry" />
        </mxCell>
        <mxCell id="Xi3O6kmKzdh9R9sVhrsC-36" value="" style="endArrow=none;html=1;rounded=0;" parent="1" source="Xi3O6kmKzdh9R9sVhrsC-25" target="Xi3O6kmKzdh9R9sVhrsC-38" edge="1">
          <mxGeometry width="50" height="50" relative="1" as="geometry">
            <mxPoint x="290" y="620" as="sourcePoint" />
            <mxPoint x="145" y="618" as="targetPoint" />
          </mxGeometry>
        </mxCell>
        <mxCell id="Xi3O6kmKzdh9R9sVhrsC-37" value="" style="endArrow=none;html=1;rounded=0;" parent="1" source="Xi3O6kmKzdh9R9sVhrsC-30" target="l7MT872VKooE7eArClU3-1" edge="1">
          <mxGeometry width="50" height="50" relative="1" as="geometry">
            <mxPoint x="160" y="469" as="sourcePoint" />
            <mxPoint x="-130" y="380" as="targetPoint" />
            <Array as="points">
              <mxPoint x="-50" y="630" />
              <mxPoint x="-100" y="360" />
            </Array>
          </mxGeometry>
        </mxCell>
        <mxCell id="Xi3O6kmKzdh9R9sVhrsC-38" value="&lt;font style=&quot;font-size: 14px;&quot;&gt;Εμφάνιση παραθύρου επιβεβαίωσης&lt;/font&gt;" style="ellipse;shape=umlControl;whiteSpace=wrap;html=1;" parent="1" vertex="1">
          <mxGeometry x="307.5" y="680" width="100" height="100" as="geometry" />
        </mxCell>
        <mxCell id="Xi3O6kmKzdh9R9sVhrsC-39" value="" style="endArrow=none;html=1;rounded=0;entryX=1.017;entryY=0.554;entryDx=0;entryDy=0;entryPerimeter=0;" parent="1" source="Xi3O6kmKzdh9R9sVhrsC-38" target="Xi3O6kmKzdh9R9sVhrsC-30" edge="1">
          <mxGeometry width="50" height="50" relative="1" as="geometry">
            <mxPoint x="563" y="673" as="sourcePoint" />
            <mxPoint x="415" y="724" as="targetPoint" />
          </mxGeometry>
        </mxCell>
        <mxCell id="Xi3O6kmKzdh9R9sVhrsC-42" value="&lt;font style=&quot;font-size: 14px;&quot;&gt;Εμφάνιση παραθύρου αποτυχίας&lt;/font&gt;" style="ellipse;shape=umlControl;whiteSpace=wrap;html=1;strokeColor=#FF3333;fontColor=#FF3333;" parent="1" vertex="1">
          <mxGeometry x="70" y="790" width="100" height="100" as="geometry" />
        </mxCell>
        <mxCell id="Xi3O6kmKzdh9R9sVhrsC-43" value="" style="endArrow=none;html=1;rounded=0;strokeColor=#FF3333;" parent="1" source="Xi3O6kmKzdh9R9sVhrsC-23" target="Xi3O6kmKzdh9R9sVhrsC-42" edge="1">
          <mxGeometry width="50" height="50" relative="1" as="geometry">
            <mxPoint x="255" y="540" as="sourcePoint" />
            <mxPoint x="320" y="597" as="targetPoint" />
          </mxGeometry>
        </mxCell>
        <mxCell id="Xi3O6kmKzdh9R9sVhrsC-44" value="" style="shape=umlBoundary;whiteSpace=wrap;html=1;strokeColor=#FF3333;" parent="1" vertex="1">
          <mxGeometry x="-150" y="790" width="100" height="80" as="geometry" />
        </mxCell>
        <mxCell id="Xi3O6kmKzdh9R9sVhrsC-45" value="&lt;font style=&quot;font-size: 14px;&quot;&gt;Request Denied&lt;/font&gt;" style="text;html=1;align=center;verticalAlign=middle;resizable=0;points=[];autosize=1;strokeColor=none;fillColor=none;fontColor=#FF3333;" parent="1" vertex="1">
          <mxGeometry x="-150" y="755" width="120" height="30" as="geometry" />
        </mxCell>
        <mxCell id="Xi3O6kmKzdh9R9sVhrsC-46" value="" style="endArrow=none;html=1;rounded=0;entryX=0.997;entryY=0.579;entryDx=0;entryDy=0;entryPerimeter=0;fontColor=#FF3333;strokeColor=#FF3333;" parent="1" source="Xi3O6kmKzdh9R9sVhrsC-42" target="Xi3O6kmKzdh9R9sVhrsC-44" edge="1">
          <mxGeometry width="50" height="50" relative="1" as="geometry">
            <mxPoint x="322" y="665" as="sourcePoint" />
            <mxPoint x="166" y="815" as="targetPoint" />
          </mxGeometry>
        </mxCell>
        <mxCell id="Xi3O6kmKzdh9R9sVhrsC-47" value="&lt;font&gt;Δεν υπάρχει&amp;nbsp;&lt;/font&gt;&lt;div&gt;&lt;font&gt;διαθεσιμότητα&lt;/font&gt;&lt;/div&gt;" style="text;html=1;align=center;verticalAlign=middle;resizable=0;points=[];autosize=1;strokeColor=none;fillColor=none;rotation=-45;fontColor=#FF3333;" parent="1" vertex="1">
          <mxGeometry x="172.5" y="745" width="100" height="40" as="geometry" />
        </mxCell>
        <mxCell id="Xi3O6kmKzdh9R9sVhrsC-49" value="Βρέθηκε" style="text;html=1;align=center;verticalAlign=middle;resizable=0;points=[];autosize=1;strokeColor=none;fillColor=none;rotation=0;" parent="1" vertex="1">
          <mxGeometry x="407.5" y="380" width="70" height="30" as="geometry" />
        </mxCell>
        <mxCell id="Xi3O6kmKzdh9R9sVhrsC-50" value="" style="endArrow=none;html=1;rounded=0;exitX=0.25;exitY=0.962;exitDx=0;exitDy=0;exitPerimeter=0;strokeColor=#FF3333;" parent="1" source="Xi3O6kmKzdh9R9sVhrsC-53" target="Xi3O6kmKzdh9R9sVhrsC-11" edge="1">
          <mxGeometry width="50" height="50" relative="1" as="geometry">
            <mxPoint x="520" y="190" as="sourcePoint" />
            <mxPoint x="394" y="395" as="targetPoint" />
          </mxGeometry>
        </mxCell>
        <mxCell id="Xi3O6kmKzdh9R9sVhrsC-52" value="&lt;font style=&quot;font-size: 14px;&quot;&gt;Δεν Βρέθηκε&lt;/font&gt;" style="text;html=1;align=center;verticalAlign=middle;resizable=0;points=[];autosize=1;strokeColor=none;fillColor=none;rotation=-90;fontColor=#FF3333;" parent="1" vertex="1">
          <mxGeometry x="460" y="210" width="100" height="30" as="geometry" />
        </mxCell>
        <mxCell id="Xi3O6kmKzdh9R9sVhrsC-53" value="&lt;font style=&quot;font-size: 14px; color: rgb(255, 51, 51);&quot;&gt;Εμφάνιση παραθύρου αποτυχίας αναζήτησης&lt;/font&gt;" style="ellipse;shape=umlControl;whiteSpace=wrap;html=1;strokeColor=#FF3333;" parent="1" vertex="1">
          <mxGeometry x="505" y="65" width="100" height="100" as="geometry" />
        </mxCell>
        <mxCell id="Xi3O6kmKzdh9R9sVhrsC-54" value="" style="shape=umlBoundary;whiteSpace=wrap;html=1;strokeColor=#FF3333;" parent="1" vertex="1">
          <mxGeometry x="20" y="30" width="100" height="80" as="geometry" />
        </mxCell>
        <mxCell id="Xi3O6kmKzdh9R9sVhrsC-55" value="" style="endArrow=none;html=1;rounded=0;strokeColor=#FF3333;entryX=0.983;entryY=0.608;entryDx=0;entryDy=0;entryPerimeter=0;" parent="1" source="Xi3O6kmKzdh9R9sVhrsC-53" target="Xi3O6kmKzdh9R9sVhrsC-54" edge="1">
          <mxGeometry width="50" height="50" relative="1" as="geometry">
            <mxPoint x="525" y="196" as="sourcePoint" />
            <mxPoint x="427" y="317" as="targetPoint" />
          </mxGeometry>
        </mxCell>
        <mxCell id="Xi3O6kmKzdh9R9sVhrsC-57" value="&lt;font style=&quot;font-size: 14px;&quot;&gt;No Book Found&lt;/font&gt;" style="text;html=1;align=center;verticalAlign=middle;resizable=0;points=[];autosize=1;strokeColor=none;fillColor=none;fontColor=#FF3333;" parent="1" vertex="1">
          <mxGeometry x="15" width="120" height="30" as="geometry" />
        </mxCell>
        <mxCell id="Xi3O6kmKzdh9R9sVhrsC-61" value="" style="shape=umlBoundary;whiteSpace=wrap;html=1;fontColor=#FF3333;strokeColor=#FF3333;" parent="1" vertex="1">
          <mxGeometry x="120" y="575" width="100" height="80" as="geometry" />
        </mxCell>
        <mxCell id="Xi3O6kmKzdh9R9sVhrsC-62" value="&lt;font style=&quot;font-size: 14px;&quot;&gt;Search Results&lt;/font&gt;" style="text;html=1;align=center;verticalAlign=middle;resizable=0;points=[];autosize=1;strokeColor=none;fillColor=none;fontColor=#FF3333;" parent="1" vertex="1">
          <mxGeometry x="120" y="545" width="120" height="30" as="geometry" />
        </mxCell>
        <mxCell id="Xi3O6kmKzdh9R9sVhrsC-63" value="&lt;font style=&quot;font-size: 14px;&quot;&gt;Επιλέγει&amp;nbsp;&lt;/font&gt;&lt;span style=&quot;font-size: 14px; background-color: transparent; color: light-dark(rgb(255, 51, 51), rgb(255, 119, 119));&quot;&gt;πολλαπλά&amp;nbsp;&lt;/span&gt;&lt;div&gt;&lt;span style=&quot;font-size: 14px; background-color: transparent; color: light-dark(rgb(255, 51, 51), rgb(255, 119, 119));&quot;&gt;βιβλία&lt;/span&gt;&lt;/div&gt;" style="text;html=1;align=center;verticalAlign=middle;resizable=0;points=[];autosize=1;strokeColor=none;fillColor=none;rotation=50;fontColor=#FF3333;" parent="1" vertex="1">
          <mxGeometry x="-17.5" y="495" width="150" height="50" as="geometry" />
        </mxCell>
        <mxCell id="Xi3O6kmKzdh9R9sVhrsC-64" value="" style="endArrow=none;html=1;rounded=0;exitX=0.225;exitY=0.275;exitDx=0;exitDy=0;exitPerimeter=0;fontColor=#FF3333;strokeColor=#FF3333;" parent="1" source="Xi3O6kmKzdh9R9sVhrsC-61" target="l7MT872VKooE7eArClU3-1" edge="1">
          <mxGeometry width="50" height="50" relative="1" as="geometry">
            <mxPoint x="160" y="469" as="sourcePoint" />
            <mxPoint x="10" y="377" as="targetPoint" />
            <Array as="points">
              <mxPoint x="20" y="540" />
            </Array>
          </mxGeometry>
        </mxCell>
        <mxCell id="Xi3O6kmKzdh9R9sVhrsC-65" value="" style="endArrow=none;html=1;rounded=0;entryX=0;entryY=0.562;entryDx=0;entryDy=0;entryPerimeter=0;exitX=1.008;exitY=0.671;exitDx=0;exitDy=0;exitPerimeter=0;strokeColor=#FF3333;" parent="1" source="Xi3O6kmKzdh9R9sVhrsC-61" target="Xi3O6kmKzdh9R9sVhrsC-23" edge="1">
          <mxGeometry width="50" height="50" relative="1" as="geometry">
            <mxPoint x="260" y="500" as="sourcePoint" />
            <mxPoint x="327" y="500" as="targetPoint" />
          </mxGeometry>
        </mxCell>
        <mxCell id="Xi3O6kmKzdh9R9sVhrsC-66" value="&lt;font style=&quot;font-size: 14px;&quot;&gt;Αποστολή αιτήματος στο χρήστη&amp;nbsp;&lt;/font&gt;" style="ellipse;shape=umlControl;whiteSpace=wrap;html=1;" parent="1" vertex="1">
          <mxGeometry x="-180" y="630" width="100" height="100" as="geometry" />
        </mxCell>
        <mxCell id="Xi3O6kmKzdh9R9sVhrsC-67" value="" style="endArrow=none;html=1;rounded=0;entryX=1.02;entryY=0.68;entryDx=0;entryDy=0;entryPerimeter=0;" parent="1" source="Xi3O6kmKzdh9R9sVhrsC-30" target="Xi3O6kmKzdh9R9sVhrsC-66" edge="1">
          <mxGeometry width="50" height="50" relative="1" as="geometry">
            <mxPoint x="160" y="469" as="sourcePoint" />
            <mxPoint x="10" y="377" as="targetPoint" />
          </mxGeometry>
        </mxCell>
        <mxCell id="Gr1uQoJRg3DF9CmiDk03-1" value="&lt;font style=&quot;&quot;&gt;Επιλογή στρατηγικής&lt;/font&gt;&lt;div&gt;&lt;font style=&quot;&quot;&gt;αναζήτησης&lt;/font&gt;&lt;/div&gt;" style="ellipse;shape=umlControl;whiteSpace=wrap;html=1;strokeColor=#FF3333;fontColor=#FF3333;" parent="1" vertex="1">
          <mxGeometry x="350" y="250" width="100" height="110" as="geometry" />
        </mxCell>
        <mxCell id="Gr1uQoJRg3DF9CmiDk03-2" value="" style="endArrow=none;html=1;rounded=0;entryX=0.041;entryY=0.498;entryDx=0;entryDy=0;entryPerimeter=0;exitX=1.013;exitY=0.684;exitDx=0;exitDy=0;exitPerimeter=0;" parent="1" source="Gr1uQoJRg3DF9CmiDk03-1" target="Xi3O6kmKzdh9R9sVhrsC-11" edge="1">
          <mxGeometry width="50" height="50" relative="1" as="geometry">
            <mxPoint x="280" y="351" as="sourcePoint" />
            <mxPoint x="347" y="351" as="targetPoint" />
          </mxGeometry>
        </mxCell>
        <mxCell id="Gr1uQoJRg3DF9CmiDk03-3" value="" style="endArrow=none;html=1;rounded=0;exitX=0.24;exitY=0.921;exitDx=0;exitDy=0;exitPerimeter=0;entryX=0.947;entryY=0.757;entryDx=0;entryDy=0;entryPerimeter=0;strokeColor=#FF3333;fontColor=#FF3333;" parent="1" source="Gr1uQoJRg3DF9CmiDk03-1" target="Gr1uQoJRg3DF9CmiDk03-5" edge="1">
          <mxGeometry width="50" height="50" relative="1" as="geometry">
            <mxPoint x="451" y="355" as="sourcePoint" />
            <mxPoint x="280" y="410" as="targetPoint" />
            <Array as="points">
              <mxPoint x="340" y="420" />
            </Array>
          </mxGeometry>
        </mxCell>
        <mxCell id="Gr1uQoJRg3DF9CmiDk03-4" value="&lt;font&gt;Προτεινόμενα&amp;nbsp;&lt;/font&gt;&lt;div&gt;&lt;font&gt;Βιβλία&lt;/font&gt;&lt;/div&gt;" style="text;html=1;align=center;verticalAlign=middle;resizable=0;points=[];autosize=1;strokeColor=none;fillColor=none;rotation=-30;fontColor=#FF3333;fontSize=13;" parent="1" vertex="1">
          <mxGeometry x="267.5" y="375" width="110" height="40" as="geometry" />
        </mxCell>
        <mxCell id="Gr1uQoJRg3DF9CmiDk03-5" value="" style="shape=umlBoundary;whiteSpace=wrap;html=1;strokeColor=#FF3333;" parent="1" vertex="1">
          <mxGeometry x="165" y="365" width="100" height="80" as="geometry" />
        </mxCell>
        <mxCell id="Gr1uQoJRg3DF9CmiDk03-7" value="" style="endArrow=none;html=1;rounded=0;entryX=0.033;entryY=0.489;entryDx=0;entryDy=0;entryPerimeter=0;strokeColor=#FF3333;" parent="1" target="Gr1uQoJRg3DF9CmiDk03-5" edge="1" source="l7MT872VKooE7eArClU3-1">
          <mxGeometry width="50" height="50" relative="1" as="geometry">
            <mxPoint x="10" y="361" as="sourcePoint" />
            <mxPoint x="185" y="328" as="targetPoint" />
          </mxGeometry>
        </mxCell>
        <mxCell id="Gr1uQoJRg3DF9CmiDk03-8" value="&lt;font&gt;Επιλογή&amp;nbsp;&lt;/font&gt;&lt;span style=&quot;background-color: transparent;&quot;&gt;Αναζήτησης&amp;nbsp;&lt;/span&gt;&lt;div&gt;&lt;span style=&quot;background-color: transparent;&quot;&gt;Προτεινόμενων&amp;nbsp;&lt;/span&gt;&lt;span style=&quot;background-color: transparent;&quot;&gt;Βιβλίων&lt;/span&gt;&lt;/div&gt;" style="text;html=1;align=center;verticalAlign=middle;resizable=0;points=[];autosize=1;strokeColor=none;fillColor=none;rotation=15;fontColor=#FF3333;fontSize=13;" parent="1" vertex="1">
          <mxGeometry x="15" y="350" width="160" height="40" as="geometry" />
        </mxCell>
        <mxCell id="Gr1uQoJRg3DF9CmiDk03-10" value="&lt;font style=&quot;&quot;&gt;&lt;font&gt;&lt;span style=&quot;line-height: 115%;&quot;&gt;Search Recommend&lt;/span&gt;&lt;span lang=&quot;EN-US&quot; style=&quot;font-family: Calibri, sans-serif;&quot;&gt;ed&amp;nbsp;&lt;/span&gt;&lt;/font&gt;&lt;span style=&quot;font-family: Calibri, sans-serif; background-color: transparent;&quot;&gt;Books&lt;/span&gt;&lt;/font&gt;" style="text;html=1;align=center;verticalAlign=middle;resizable=0;points=[];autosize=1;strokeColor=none;fillColor=none;fontSize=14;fontColor=#FF3333;" parent="1" vertex="1">
          <mxGeometry x="120" y="335" width="200" height="30" as="geometry" />
        </mxCell>
      </root>
    </mxGraphModel>
  </diagram>
</mxfile>
